<mxfile host="app.diagrams.net" modified="2023-06-20T03:06:54.078Z" agent="Mozilla/5.0 (Windows NT 10.0; Win64; x64) AppleWebKit/537.36 (KHTML, like Gecko) Chrome/114.0.0.0 Safari/537.36" version="21.2.9" etag="UWvz0oj80uNMY_WmfRwl" type="github">
  <diagram name="Page-1" id="whnM7biUPd2RZ3Eyni8K">
    <mxGraphModel>
      <root>
        <mxCell id="0" />
        <mxCell id="1" parent="0" />
      </root>
    </mxGraphModel>
  </diagram>
</mxfile>
